<?xml version="1.0" encoding="utf-8"?><!-- Generator: Adobe Illustrator 21.0.0, SVG Export Plug-In . SVG Version: 6.00 Build 0)  -->
<svg enable-background="new 0 0 160.5 160.5" height="160.5px" id="Layer_1"  version="1.1" viewBox="0 0 160.5 160.5"
	 width="160.5px" x="0px" xmlns="http://www.w3.org/2000/svg" y="0px" xml:space="preserve">
<title>Sunny</title>
<desc>Created with Sketch.</desc>
<g id="Symbols">
	<g id="Sunny">
		<g id="Group-2" transform="translate(2.000000, 2.000000)">
			<path d="M78.2,48.2c-16.6,0-30,13.5-30,30s13.5,30,30,30
				s30-13.5,30-30C108.3,61.7,94.8,48.2,78.2,48.2L78.2,48.2z M78.2,104.1c-10.5,0-19.9-6.3-23.9-16S52.6,67.3,60,59.9
				s18.5-9.6,28.2-5.6s16,13.5,16,23.9C104.1,92.5,92.5,104.1,78.2,104.1L78.2,104.1z" fill="#FF9400" id="Shape" stroke="#FF9400" stroke-width="0.5"/>
			<path d="M38.3,76.2h-8c-1.2,0-2.1,0.9-2.1,2.1
				s0.9,2.1,2.1,2.1h8c1.2,0,2.1-0.9,2.1-2.1S39.5,76.2,38.3,76.2z" fill="#FF9400" id="Shape_1_" stroke="#FF9400" stroke-width="0.5"/>
			<path d="M126.2,76.2h-8c-1.2,0-2.1,0.9-2.1,2.1
				s0.9,2.1,2.1,2.1h8c1.2,0,2.1-0.9,2.1-2.1S127.3,76.2,126.2,76.2z" fill="#FF9400" id="Shape_2_" stroke="#FF9400" stroke-width="0.5"/>
			<path d="M78.2,40.4c1.2,0,2.1-0.9,2.1-2.1v-8
				c0-1.2-0.9-2.1-2.1-2.1s-2.1,0.9-2.1,2.1v8C76.2,39.5,77.1,40.4,78.2,40.4z" fill="#FF9400" id="Shape_3_" stroke="#FF9400" stroke-width="0.5"/>
			<path d="M78.2,116.1c-1.2,0-2.1,0.9-2.1,2.1v8
				c0,1.2,0.9,2.1,2.1,2.1s2.1-0.9,2.1-2.1v-8C80.3,117,79.4,116.1,78.2,116.1z" fill="#FF9400" id="Shape_4_" stroke="#FF9400" stroke-width="0.5"/>
			<path d="M110.7,42.8l-5.6,5.6c-0.6,0.5-0.9,1.3-0.7,2.1
				s0.8,1.4,1.5,1.5c0.8,0.2,1.6-0.1,2.1-0.7l5.7-5.6c0.8-0.8,0.8-2.2,0-3C112.8,42,111.5,42,110.7,42.8L110.7,42.8z" fill="#FF9400" id="Shape_5_" stroke="#FF9400" stroke-width="0.5"/>
			<path d="M48.5,105l-5.7,5.6c-0.8,0.8-0.8,2.2,0,3
				c0.8,0.8,2.2,0.8,3,0l5.6-5.6c0.7-0.8,0.7-2.1-0.1-2.8C50.6,104.4,49.4,104.4,48.5,105L48.5,105z" fill="#FF9400" id="Shape_6_" stroke="#FF9400" stroke-width="0.5"/>
			<path d="M108,105c-0.8-0.7-2.1-0.7-2.8,0.1
				c-0.8,0.8-0.8,2-0.1,2.8l5.6,5.7c0.8,0.8,2.2,0.8,3,0c0.8-0.8,0.8-2.2,0-3L108,105z" fill="#FF9400" id="Shape_7_" stroke="#FF9400" stroke-width="0.5"/>
			<path d="M48.5,51.5c0.8,0.7,2.1,0.7,2.8-0.1s0.8-2,0.1-2.8
				l-5.6-5.7c-0.8-0.8-2.2-0.8-3,0s-0.8,2.2,0,3L48.5,51.5z" fill="#FF9400" id="Shape_8_" stroke="#FF9400" stroke-width="0.5"/>
		</g>
	</g>
</g>
</svg>
