<?xml version="1.0" encoding="utf-8"?><!-- Generator: Adobe Illustrator 21.0.0, SVG Export Plug-In . SVG Version: 6.00 Build 0)  -->
<svg enable-background="new 0 0 160 160" height="160px" id="Layer_1"  version="1.1" viewBox="0 0 160 160"
	 width="160px" x="0px" xmlns="http://www.w3.org/2000/svg" y="0px" xml:space="preserve">
<title>Table Lamp</title>
<desc>Created with Sketch.</desc>
<g id="Symbols">
	<g id="Table-Lamp">
		<g id="Group" transform="translate(5.000000, 4.000000)">
			<path d="M74.2,81l-4.8-3.9V81L74.2,81z M69.3,120.8l4.8-3.9l-4.8,0V120.8z M74.1,117.1l4.9,3.9V117
				L74.1,117.1z M79,77.3l-4.8,3.9l4.8,0V77.3z M120.2,81c3.4,0,5.7-2.7,4.5-5.2l-22.6-47.2c-0.7-1.5-2.5-2.5-4.5-2.5H52.4
				c-2,0-3.8,1-4.5,2.5L25.3,75.7c-1.2,2.5,1.1,5.2,4.5,5.2l39.5,0v35.9l-21.4,0c-2.7,0-4.8,1.7-4.8,3.9v1.4c0,2.1,2.2,3.9,4.8,3.9
				h54.2c2.7,0,4.8-1.7,4.8-3.9v-1.4c0-2.1-2.2-3.9-4.9-3.9L79,117V81.2L120.2,81z M97.3,120.7v1.4h4.8v-1.4H97.3z M47.9,122.1h4.8
				v-1.4h-4.8V122.1z M74.2,73.3l-37.3,0l18.9-39.5h38.6l18.9,39.6l-37.6,0.2C75.1,73.3,74.7,73.3,74.2,73.3z M102.1,118.3H47.9v2.4
				l0,3.9l26.3,0c2.7,0,4.8-1.7,4.8-3.9V77.1c0-1.7-1.4-3.2-3.4-3.7l-1.4,0c-2.6,0-4.8,1.7-4.8,3.9v43.6c0,1.7,1.4,3.2,3.4,3.7
				c0.5,0.1,1,0.2,1.5,0.2l27.9-0.2l0-3.9V118.3z" fill="#FF9400" id="Shape"/>
			<rect fill="#FF9400" height="24" id="Rectangle-path" width="6" x="45.2" y="81.9"/>
		</g>
	</g>
</g>
</svg>
